# xmcd
#
# Track frame offsets:
#	150
#	14904
#	33410
#	45885
#	73925
#	89290
#	115929
#	135699
#	152744
#	165544
#	194931
#	218059
#
# Disc length: 3160 seconds
#
# Revision: 1
# Processed by: cddbd v1.4PL0 Copyright (c) Steve Scherf et al.
# Submitted via: audiograbber 1.81.02
#
DISCID=ac0c560c
DTITLE=Various Artist - CBA 'Muddy Award' Hall Of Fame
DYEAR=1999
DGENRE=Blues
TTITLE0=Paul DeLay - Worn Out Shoe
TTITLE1=Boyd Small - Got A New Car
TTITLE2=Terry Robb - Cascade Lightnin'
TTITLE3=D K Stewart - Call My Job
TTITLE4=Robbie Laws - Thank You, Mr Earl
TTITLE5=Lloyd Jones - Live It Up
TTITLE6=Too Slim and The Taildraggers - Western Man
TTITLE7=Jimmy Lloyd Rea - Back To Baker City
TTITLE8=Albert Reda - Sad Letter
TTITLE9=Curtis Salgado - Bad Boy
TTITLE10=Jim Mesi - Blues For Christopher
TTITLE11=Duffy Bishop and Janice Scroggins - I'm On A Journey
EXTD=Casecade Blues Association
EXTT0=
EXTT1=
EXTT2=
EXTT3=
EXTT4=
EXTT5=
EXTT6=
EXTT7=
EXTT8=
EXTT9=
EXTT10=
EXTT11=
PLAYORDER=
